<svg xmlns="http://www.w3.org/2000/svg" viewBox="0 0 900 650">
  <defs><linearGradient id="bg" x1="0" x2="1" y1="0" y2="1"><stop stop-color="#f8dce5"/><stop offset="1" stop-color="#7b2d43"/></linearGradient><linearGradient id="cake" x1="0" x2="1"><stop stop-color="#3b171e"/><stop offset=".55" stop-color="#6d2736"/><stop offset="1" stop-color="#eec5cd"/></linearGradient></defs>
  <rect width="900" height="650" fill="url(#bg)"/>
  <ellipse cx="455" cy="508" rx="280" ry="52" fill="#50212c" opacity=".28"/>
  <path d="M230 250c0-76 445-76 445 0v190c0 79-445 79-445 0z" fill="url(#cake)"/>
  <ellipse cx="452" cy="250" rx="223" ry="74" fill="#fff0f3"/>
  <path d="M260 260c32 45 78 32 109 9 29 47 74 46 106 5 37 45 84 44 118-1 26 31 52 36 78 11v65c-43 40-75 19-100-13-35 56-90 61-131 4-35 44-95 43-127-5-26 26-49 29-53 15z" fill="#f4a6ba"/>
  <circle cx="377" cy="182" r="35" fill="#a7193e"/><circle cx="445" cy="171" r="40" fill="#d84870"/><circle cx="516" cy="183" r="34" fill="#8d1632"/>
  <path d="M332 415h246" stroke="#f7d6a5" stroke-width="20" stroke-linecap="round"/><circle cx="625" cy="257" r="13" fill="#f7d6a5"/><circle cx="291" cy="278" r="9" fill="#f7d6a5"/>
</svg>
