<svg xmlns="http://www.w3.org/2000/svg" viewBox="0 0 900 650">
  <defs><linearGradient id="bg" x1="0" x2="1" y1="0" y2="1"><stop stop-color="#dbeafe"/><stop offset="1" stop-color="#312e81"/></linearGradient><linearGradient id="cheese" x1="0" x2="1"><stop stop-color="#fff7e7"/><stop offset="1" stop-color="#f1d7a3"/></linearGradient></defs>
  <rect width="900" height="650" fill="url(#bg)"/>
  <ellipse cx="450" cy="509" rx="275" ry="50" fill="#1f1b4d" opacity=".26"/>
  <path d="M220 280c0-76 460-76 460 0v145c0 82-460 82-460 0z" fill="url(#cheese)"/>
  <path d="M220 385c90 35 363 37 460 0v55c0 80-460 80-460 0z" fill="#bb8a55"/>
  <ellipse cx="450" cy="279" rx="230" ry="76" fill="#fbf4df"/>
  <path d="M255 265c76-45 298-53 392 3-45 52-341 68-392-3z" fill="#403188"/>
  <circle cx="357" cy="235" r="28" fill="#1f2473"/><circle cx="420" cy="222" r="24" fill="#5966c8"/><circle cx="493" cy="235" r="30" fill="#1b195f"/><circle cx="558" cy="246" r="24" fill="#7683e2"/>
</svg>
